<svg width="16" height="14" viewBox="0 0 16 14" fill="none" xmlns="http://www.w3.org/2000/svg">
<path d="M13.3589 10.2376C15.0613 8.72098 16 7.00001 16 7.00001C16 7.00001 13 1.50001 8 1.50001C6.98462 1.50001 6.05172 1.72683 5.20967 2.08834L5.98054 2.85921C6.60983 2.63318 7.28441 2.50001 8 2.50001C10.1194 2.50001 11.879 3.66819 13.1679 4.95711C13.8037 5.59291 14.2978 6.23194 14.6327 6.71242C14.7055 6.81678 14.7704 6.91322 14.8273 7.00001C14.7704 7.0868 14.7055 7.18323 14.6327 7.28759C14.2978 7.76808 13.8037 8.4071 13.1679 9.0429C13.0031 9.20772 12.8306 9.37057 12.6506 9.52925L13.3589 10.2376Z" fill="#212529"/>
<path d="M11.2975 8.17615C11.4286 7.80857 11.5 7.41263 11.5 7.00001C11.5 5.06701 9.933 3.50001 8 3.50001C7.58738 3.50001 7.19144 3.57141 6.82386 3.70253L7.64618 4.52485C7.76176 4.50848 7.87989 4.50001 8 4.50001C9.38071 4.50001 10.5 5.6193 10.5 7.00001C10.5 7.12011 10.4915 7.23824 10.4752 7.35383L11.2975 8.17615Z" fill="#212529"/>
<path d="M8.35385 9.47516L9.17617 10.2975C8.80858 10.4286 8.41263 10.5 8 10.5C6.067 10.5 4.5 8.933 4.5 7.00001C4.5 6.58738 4.5714 6.19143 4.70253 5.82384L5.52485 6.64616C5.50847 6.76175 5.5 6.87989 5.5 7.00001C5.5 8.38072 6.61929 9.50001 8 9.50001C8.12012 9.50001 8.23825 9.49154 8.35385 9.47516Z" fill="#212529"/>
<path d="M3.34944 4.47075C3.16945 4.62944 2.99693 4.79229 2.83211 4.95711C2.19631 5.59291 1.70216 6.23194 1.36727 6.71242C1.29454 6.81678 1.22963 6.91322 1.1727 7.00001C1.22963 7.0868 1.29454 7.18323 1.36727 7.28759C1.70216 7.76808 2.19631 8.4071 2.83211 9.0429C4.12103 10.3318 5.88062 11.5 8 11.5C8.7156 11.5 9.39018 11.3668 10.0195 11.1408L10.7904 11.9117C9.9483 12.2732 9.01539 12.5 8 12.5C3 12.5 0 7.00001 0 7.00001C0 7.00001 0.938717 5.27903 2.64112 3.76243L3.34944 4.47075Z" fill="#212529"/>
<path d="M13.6464 13.3536L1.64645 1.35356L2.35355 0.646454L14.3536 12.6465L13.6464 13.3536Z" fill="#212529"/>
</svg>
