<svg width="16" height="12" viewBox="0 0 16 12" fill="none" xmlns="http://www.w3.org/2000/svg">
<path d="M16 6C16 6 13 0.5 8 0.5C3 0.5 0 6 0 6C0 6 3 11.5 8 11.5C13 11.5 16 6 16 6ZM1.1727 6C1.22963 5.91321 1.29454 5.81677 1.36727 5.71242C1.70216 5.23193 2.19631 4.5929 2.83211 3.95711C4.12103 2.66818 5.88062 1.5 8 1.5C10.1194 1.5 11.879 2.66818 13.1679 3.95711C13.8037 4.5929 14.2978 5.23193 14.6327 5.71242C14.7055 5.81677 14.7704 5.91321 14.8273 6C14.7704 6.08679 14.7055 6.18323 14.6327 6.28758C14.2978 6.76807 13.8037 7.4071 13.1679 8.04289C11.879 9.33182 10.1194 10.5 8 10.5C5.88062 10.5 4.12103 9.33182 2.83211 8.04289C2.19631 7.4071 1.70216 6.76807 1.36727 6.28758C1.29454 6.18323 1.22963 6.08679 1.1727 6Z" fill="#212529"/>
<path d="M8 3.5C6.61929 3.5 5.5 4.61929 5.5 6C5.5 7.38071 6.61929 8.5 8 8.5C9.38071 8.5 10.5 7.38071 10.5 6C10.5 4.61929 9.38071 3.5 8 3.5ZM4.5 6C4.5 4.067 6.067 2.5 8 2.5C9.933 2.5 11.5 4.067 11.5 6C11.5 7.933 9.933 9.5 8 9.5C6.067 9.5 4.5 7.933 4.5 6Z" fill="#212529"/>
</svg>
