<svg width="17" height="16" viewBox="0 0 17 16" fill="none" xmlns="http://www.w3.org/2000/svg">
    <path d="M12.659 10.3439C13.4497 9.2673 13.9168 7.9382 13.9168 6.5C13.9168 2.91015 11.0067 0 7.41681 0C3.82696 0 0.916809 2.91015 0.916809 6.5C0.916809 10.0899 3.82696 13 7.41681 13C8.85539 13 10.1848 12.5327 11.2616 11.7415L11.2607 11.7422C11.2902 11.7822 11.323 11.8204 11.3592 11.8566L15.2097 15.7071C15.6002 16.0976 16.2334 16.0976 16.6239 15.7071C17.0144 15.3166 17.0144 14.6834 16.6239 14.2929L12.7735 10.4424C12.7372 10.4062 12.699 10.3734 12.659 10.3439ZM12.9168 6.5C12.9168 9.53757 10.4544 12 7.41681 12C4.37924 12 1.91681 9.53757 1.91681 6.5C1.91681 3.46243 4.37924 1 7.41681 1C10.4544 1 12.9168 3.46243 12.9168 6.5Z"
          fill="#6C757D"/>
</svg>
