<svg width="16" height="16" viewBox="0 0 16 16" fill="none" xmlns="http://www.w3.org/2000/svg">
    <path d="M1.33331 2.66667C1.33331 1.19391 4.31808 0 7.99998 0C11.6819 0 14.6666 1.19391 14.6666 2.66667V4C14.6666 5.47276 11.6819 6.66667 7.99998 6.66667C4.31808 6.66667 1.33331 5.47276 1.33331 4V2.66667Z"
          fill="#20C997"/>
    <path d="M1.33331 6.33436V9.33333C1.33331 10.8061 4.31808 12 7.99998 12C11.6819 12 14.6666 10.8061 14.6666 9.33333V6.33436C14.2369 6.65319 13.7355 6.91309 13.2092 7.12359C11.8095 7.68349 9.96713 8 7.99998 8C6.03283 8 4.19051 7.68349 2.79075 7.12359C2.2645 6.91309 1.76301 6.65319 1.33331 6.33436Z"
          fill="#20C997"/>
    <path d="M14.6666 11.6677C14.2369 11.9865 13.7355 12.2464 13.2092 12.4569C11.8095 13.0168 9.96713 13.3333 7.99998 13.3333C6.03283 13.3333 4.19051 13.0168 2.79075 12.4569C2.2645 12.2464 1.76301 11.9865 1.33331 11.6677V13.3333C1.33331 14.8061 4.31808 16 7.99998 16C11.6819 16 14.6666 14.8061 14.6666 13.3333V11.6677Z"
          fill="#20C997"/>
</svg>
